#!OML:ASF X:\für Bonn\!DataBase\2005_08_12_Daniel\c3d\Daniel.ASF
:FULLY-SPECIFIED
:DEGREES
247
root 0.52419 17.7093 0.413863 -19.075 -87.7679 16.9516
lowerback 10.5594 0.206193 1.20741
upperback -2.98107 0.201871 -2.56192
thorax -9.11695 -0.0633038 -3.45801
lowerneck -16.4408 -1.8671 -0.816566
upperneck 1.17461 -2.56052 2.08207
head 3.33897 -1.22696 0.632234
rclavicle -4.37326e-015 7.95139e-015
rhumerus -48.2861 5.54035 -97.107
rradius 62.0305
rwrist 25.0149
rhand -18.4639 366.995
rfingers 7.12502
rthumb 7.82264 337.159
lclavicle -4.37326e-015 7.95139e-015
lhumerus -242.717 182.395 -84.728
lradius 93.5337
lwrist 26.8276
lhand -24.1209 14.4383
lfingers 7.12502
lthumb 2.36056 44.405
rfemur -8.63601 8.81652 10.8292
rtibia 33.1593
rfoot 346.174 -15.6414
rtoes -12.7791
lfemur -12.3661 -14.9805 -16.0522
ltibia 40.2528
lfoot -18.7898 12.2783
ltoes -6.8311
248
root 0.545103 17.7286 0.419029 -17.2889 -87.6352 15.2747
lowerback 10.9198 0.119462 1.20903
upperback -2.97727 0.0973675 -2.4542
thorax -9.3305 -0.112877 -3.33009
lowerneck -16.5725 -1.82499 -1.01187
upperneck 0.635762 -2.47238 2.07896
head 3.17521 -1.19397 0.672974
rclavicle 2.73329e-015 -1.43125e-014
rhumerus -50.0678 2.65357 -95.5374
rradius 60.2456
rwrist 22.6751
rhand -18.1728 365.723
rfingers 7.12502
rthumb 8.10358 335.898
lclavicle 2.73329e-015 -1.43125e-014
lhumerus -244.795 181.393 -85.1121
lradius 93.8902
lwrist 26.4268
lhand -22.4057 14.7595
lfingers 7.12502
lthumb 4.017 44.7013
rfemur -8.71498 8.56981 10.8532
rtibia 33.3809
rfoot 346.664 -15.3556
rtoes -12.722
lfemur -12.472 -14.7673 -16.0297
ltibia 40.3246
lfoot -18.4068 12.0013
ltoes -6.72545
249
root 0.568416 17.7313 0.423818 -14.7036 -87.4841 12.6776
lowerback 11.3549 0.0272687 1.23479
upperback -2.91871 -0.00583945 -2.31361
thorax -9.52737 -0.160659 -3.17941
lowerneck -16.5921 -1.77869 -1.16438
upperneck 0.0698052 -2.3864 2.04692
head 2.98002 -1.16307 0.696737
rclavicle 4.69629e-015 7.15625e-015
rhumerus -51.7449 0.0457627 -93.6875
rradius 58.5254
rwrist 20.6172
rhand -18.1817 364.48
rfingers 7.12502
rthumb 8.09498 334.655
lclavicle 4.69629e-015 7.15625e-015
lhumerus -246.567 180.61 -85.4102
lradius 94.1452
lwrist 25.6052
lhand -20.636 14.9914
lfingers 7.12502
lthumb 5.72584 44.894
rfemur -8.70538 8.22791 10.9422
rtibia 33.7286
rfoot 346.954 -14.826
rtoes -12.5779
lfemur -12.4218 -14.5097 -15.9806
ltibia 40.4107
lfoot -18.1892 11.5605
ltoes -6.33697
250
root 0.593472 17.719 0.428451 -10.537 -87.339 8.40886
lowerback 11.7814 -0.0639964 1.3476
upperback -2.77629 -0.0886755 -2.13857
thorax -9.62532 -0.199679 -3.04196
lowerneck -16.7031 -1.73756 -1.28103
upperneck -0.402779 -2.31307 1.96757
head 2.83425 -1.13855 0.696643
rclavicle 4.89507e-015 -1.07344e-014
rhumerus -53.4707 -2.28558 -91.6322
rradius 57.3267
rwrist 19.006
rhand -18.1259 363.221
rfingers 7.12502
rthumb 8.14887 333.398
lclavicle 4.89507e-015 -1.07344e-014
lhumerus -248.063 180.033 -85.648
lradius 94.2746
lwrist 24.5341
lhand -18.7458 14.8293
lfingers 7.12502
lthumb 7.5505 44.6745
rfemur -8.59591 7.86783 11.1579
rtibia 34.1361
rfoot 347.033 -14.1575
rtoes -12.4238
lfemur -12.2824 -14.2247 -15.8467
ltibia 40.5507
lfoot -18.2185 11.0292
ltoes -5.83218
251
root 0.619564 17.6909 0.432584 -6.75101 -87.1466 4.42498
lowerback 12.2083 -0.160466 1.45829
upperback -2.54424 -0.174896 -1.94215
thorax -9.62435 -0.23717 -2.87711
lowerneck -16.9 -1.69924 -1.38007
upperneck -0.817916 -2.24529 1.82801
head 2.72354 -1.1183 0.672586
rclavicle 3.10601e-015 -1.94809e-014
rhumerus -55.2255 -4.25528 -89.4485
rradius 56.7025
rwrist 17.9115
rhand -17.8222 361.898
rfingers 7.12502
rthumb 8.44188 332.087
lclavicle 3.10601e-015 -1.94809e-014
lhumerus -249.308 179.653 -85.8036
lradius 94.3607
lwrist 23.2845
lhand -16.8332 14.297
lfingers 7.12502
lthumb 9.39626 44.0676
rfemur -8.35341 7.42911 11.4007
rtibia 34.5552
rfoot 346.939 -13.4051
rtoes -12.494
lfemur -12.0847 -13.901 -15.7142
ltibia 40.7699
lfoot -18.4734 10.3499
ltoes -5.55382
252
root 0.641653 17.6488 0.432878 -2.78187 -86.7956 0.167087
lowerback 12.5989 -0.3 1.58357
upperback -2.21673 -0.314101 -1.72613
thorax -9.49974 -0.298079 -2.68621
lowerneck -17.1488 -1.67045 -1.47452
upperneck -1.23387 -2.19332 1.69118
head 2.62243 -1.10586 0.647217
rclavicle 4.8081e-015 -1.74931e-014
rhumerus -56.9542 -5.61492 -87.3624
rradius 56.6431
rwrist 17.0868
rhand -17.2198 360.456
rfingers 7.12502
rthumb 9.02321 330.669
lclavicle 4.8081e-015 -1.74931e-014
lhumerus -250.292 179.478 -85.8829
lradius 94.4402
lwrist 22.058
lhand -14.9946 13.3738
lfingers 7.12502
lthumb 11.1699 43.0565
rfemur -7.90834 6.89032 11.7166
rtibia 34.9313
rfoot 346.569 -12.6169
rtoes -12.6704
lfemur -11.8705 -13.6258 -15.525
ltibia 41.0917
lfoot -18.9347 9.53054
ltoes -5.45081
